# xmcd CD database file
#
# Track frame offsets:
#	150
#	16986
#	35440
#	59231
#	82506
#	101701
#	127425
#	149755
#	168634
#	191339
#
# Disc length: 2906 seconds
#
# Revision: 0
# Processed by: cddbd v1.5.2PL0 Copyright (c) Steve Scherf et al.
# Submitted via: CDex 1.51
#
DISCID=910b580a
DTITLE=MFSB DEXTER WANSEL - BACK KCAB
DYEAR=1975
DGENRE=Jazz
TTITLE0=TSOP
TTITLE1=Summertime And Im Feelin Mellow
TTITLE2=Use Ta Be My Guyh
TTITLE3=Dance With Me Tonight
TTITLE4=Sunnin And Funnin
TTITLE5=The Sweetest Pain
TTITLE6=Solutions
TTITLE7=Disco Lights
TTITLE8=Its Been Cool
TTITLE9=Life On Mars (Part 1)
EXTD=YEAR: 1975
EXTT0=
EXTT1=
EXTT2=
EXTT3=
EXTT4=
EXTT5=
EXTT6=
EXTT7=
EXTT8=
EXTT9=
PLAYORDER=
